# xmcd
#
# Track frame offsets:
#	150
#	16482
#	34519
#	49676
#	71968
#	88287
#	107072
#	119956
#	135799
#	150272
#	166203
#	177622
#	195381
#	215636
#	233730
#	252611
#	263789
#	277745
#	294260
#	312877
#	329227
#	342954
#
# Disc length: 4797 seconds
#
# Revision: 0
# Processed by: cddbd v1.5.2PL0 Copyright (c) Steve Scherf et al.
# Submitted via: EZCDAudioConverter 2.2.2.1
#
DISCID=4812bb16
DTITLE=Homero - Inolvidable
DYEAR=2007
DGENRE=Balada
TTITLE0=Un Pañuelo Y Una Flor
TTITLE1=Tu Propia Telaraña
TTITLE2=Si Tu Supieras Si Me Comprendes
TTITLE3=Contra Viento Y Marea
TTITLE4=No Me Vuelvo A Enamorar Otra Vez
TTITLE5=Querida Mia
TTITLE6=Ahora Que Yo Te Conozco
TTITLE7=Para Quien
TTITLE8=Que Pretendes
TTITLE9=Juntos Usted Y Yo
TTITLE10=Vente Conmigo
TTITLE11=Pecado
TTITLE12=Maribel
TTITLE13=Que Somos Amantes
TTITLE14=Soy Un Payaso
TTITLE15=Amigo Sera Otro Dia
TTITLE16=Vive Tu Vida
TTITLE17=Hola Corazon
TTITLE18=Tema A Leslie
TTITLE19=Amiga
TTITLE20=Amar En Silencio
TTITLE21=Quiero Que Estes Conmigo
EXTD=
EXTT0=
EXTT1=
EXTT2=
EXTT3=
EXTT4=
EXTT5=
EXTT6=
EXTT7=
EXTT8=
EXTT9=
EXTT10=
EXTT11=
EXTT12=
EXTT13=
EXTT14=
EXTT15=
EXTT16=
EXTT17=
EXTT18=
EXTT19=
EXTT20=
EXTT21=
PLAYORDER=
